<svg xmlns="http://www.w3.org/2000/svg" viewBox="0 0 64 64">
  <defs>
    <linearGradient id="bg" x1="10" y1="8" x2="56" y2="58" gradientUnits="userSpaceOnUse">
      <stop stop-color="#0F766E"/>
      <stop offset="1" stop-color="#2563EB"/>
    </linearGradient>
    <linearGradient id="shine" x1="16" y1="10" x2="48" y2="52" gradientUnits="userSpaceOnUse">
      <stop stop-color="#FFFFFF" stop-opacity="0.9"/>
      <stop offset="1" stop-color="#FFFFFF" stop-opacity="0.55"/>
    </linearGradient>
  </defs>
  <rect width="64" height="64" rx="16" fill="url(#bg)"/>
  <path d="M18 18h28a6 6 0 0 1 6 6v7h-6v-7H18v24h14v6H18a6 6 0 0 1-6-6V24a6 6 0 0 1 6-6Z" fill="#DFF7F2" opacity="0.95"/>
  <path d="M34 34a10 10 0 1 1 9.1 9.96L39 49h-5v5h-6v-9.5l7.1-7.1A10 10 0 0 1 34 34Zm10-4a4 4 0 1 0 0 8 4 4 0 0 0 0-8Z" fill="url(#shine)"/>
  <path d="M20 25h18v5H20v-5Zm0 10h11v5H20v-5Z" fill="#083344" opacity="0.42"/>
</svg>
